<?xml version="1.0" encoding="UTF-8" standalone="no"?>
<!-- Created with Inkscape (http://www.inkscape.org/) -->

<svg
   version="1.1"
   id="svg2"
   width="1129.48"
   height="429.89334"
   viewBox="0 0 1129.48 429.89334"
   sodipodi:docname="ENMON LOGO.eps"
   xmlns:inkscape="http://www.inkscape.org/namespaces/inkscape"
   xmlns:sodipodi="http://sodipodi.sourceforge.net/DTD/sodipodi-0.dtd"
   xmlns="http://www.w3.org/2000/svg"
   xmlns:svg="http://www.w3.org/2000/svg">
  <defs
     id="defs6" />
  <sodipodi:namedview
     id="namedview4"
     pagecolor="#ffffff"
     bordercolor="#000000"
     borderopacity="0.25"
     inkscape:showpageshadow="2"
     inkscape:pageopacity="0.0"
     inkscape:pagecheckerboard="0"
     inkscape:deskcolor="#d1d1d1" />
  <g
     id="g8"
     inkscape:groupmode="layer"
     inkscape:label="ink_ext_XXXXXX"
     transform="matrix(1.3333333,0,0,-1.3333333,0,429.89333)">
    <g
       id="g10"
       transform="scale(0.1)">
      <path
         d="m 8459.09,2109.66 c 6.6,0 12.05,5.41 12.05,12.04 v 1090.46 c 0,6.63 -5.45,12.03 -12.05,12.03 H 7368.51 c -6.57,0 -12,-5.4 -12,-12.03 V 2121.7 c 0,-6.63 5.43,-12.04 12,-12.04 h 1090.58"
         style="fill:#bad9e6;fill-opacity:1;fill-rule:nonzero;stroke:none"
         id="path12" />
      <path
         d="m 7943.68,2613.88 h -587.17 v -585.97 c 0,-6.14 -5.09,-11.17 -11.3,-11.17 h -248.06 v -249.49 c 0,-6.64 5.37,-12.05 12.01,-12.05 h 834.52 c 6.6,0 12.03,5.41 12.03,12.05 v 834.62 c 0,6.59 -5.43,12.01 -12.03,12.01"
         style="fill:#96cfe9;fill-opacity:1;fill-rule:nonzero;stroke:none"
         id="path14" />
      <path
         d="m 7243.67,2110.99 c 6.6,0 12.04,5.41 12.04,12.05 v 672.84 c 0,6.6 -5.44,12.01 -12.04,12.01 h -672.68 c -6.63,0 -12.04,-5.41 -12.04,-12.01 v -672.84 c 0,-6.64 5.41,-12.05 12.04,-12.05 h 672.68"
         style="fill:#3475c1;fill-opacity:1;fill-rule:nonzero;stroke:none"
         id="path16" />
      <path
         d="m 0,1415.94 c 0,97.33 41.7734,144.58 168.297,144.58 h 713.437 c 33.371,0 50.039,-18 50.039,-45.83 v -13.84 c 0,-27.9 -16.668,-45.92 -50.039,-45.92 H 179.418 c -38.953,0 -51.438,-15.32 -51.438,-47.33 v -211.4 c 0,-27.8 15.274,-43.11 48.684,-43.11 h 670.305 c 33.367,0 50.039,-18.12 50.039,-45.86 v -9.69 c 0,-27.87 -16.672,-45.96 -50.039,-45.96 H 176.664 c -33.41,0 -48.684,-15.28 -48.684,-43.1 V 769.281 c 0,-30.652 12.485,-47.293 51.438,-47.293 h 709.289 c 33.371,0 50.078,-18.136 50.078,-45.957 v -15.242 c 0,-27.828 -16.707,-45.93 -50.078,-45.93 H 168.297 C 40.375,614.859 0,662.148 0,759.48 v 656.46"
         style="fill:#211c1d;fill-opacity:1;fill-rule:nonzero;stroke:none"
         id="path18" />
      <path
         d="m 1266.88,1427.07 c -9.76,9.69 -18.1,13.91 -25.04,13.91 -8.37,0 -15.3,-5.61 -15.3,-18.12 V 667.781 c 0,-32.09 -20.86,-52.91 -55.63,-52.91 h -15.27 c -34.78,0 -55.66,20.82 -55.66,52.91 v 813.549 c 0,47.25 26.43,79.2 90.4,79.2 h 68.1 c 38.99,0 61.27,-8.3 89.06,-37.54 l 738.45,-774.56 c 9.73,-9.789 18.06,-13.91 25.03,-13.91 8.37,0 15.31,5.511 15.31,18.019 v 755.221 c 0,31.91 20.83,52.77 55.63,52.77 h 15.31 c 34.73,0 55.62,-20.86 55.62,-52.77 V 694.172 c 0,-47.293 -26.44,-79.301 -90.39,-79.301 h -68.14 c -38.93,0 -61.17,8.367 -89,37.598 l -738.48,774.601"
         style="fill:#211c1d;fill-opacity:1;fill-rule:nonzero;stroke:none"
         id="path20" />
      <path
         d="m 3928.63,667.762 c 0,-32.051 -20.89,-52.903 -55.66,-52.903 h -15.31 c -34.7,0 -55.58,20.852 -55.58,52.903 v 750.998 c 0,12.45 -6.98,17.98 -15.32,17.98 -8.33,0 -15.23,-5.53 -22.18,-17.98 L 3291.7,651.051 c -18.1,-30.61 -37.52,-36.192 -68.14,-36.192 h -32.01 c -30.58,0 -48.65,5.582 -66.75,36.192 l -476.99,766.279 c -6.98,12.48 -15.31,19.41 -22.29,19.41 -8.33,0 -15.27,-4.07 -15.27,-16.63 V 667.762 c 0,-32.051 -20.87,-52.903 -55.63,-52.903 h -15.27 c -34.77,0 -55.69,20.852 -55.69,52.903 v 813.548 c 0,47.33 26.47,79.2 90.42,79.2 h 66.75 c 45.89,0 69.54,-12.45 91.78,-48.65 l 460.33,-750.989 c 5.55,-9.73 12.48,-12.449 18.07,-12.449 5.58,0 12.55,2.719 18.1,12.449 l 449.21,750.989 c 20.85,36.2 45.88,48.65 91.78,48.65 h 68.17 c 63.96,0 90.36,-31.87 90.36,-79.2 V 667.762"
         style="fill:#211c1d;fill-opacity:1;fill-rule:nonzero;stroke:none"
         id="path22" />
      <path
         d="m 4749.07,715.031 c 407.49,0 453.38,38.957 453.38,368.549 v 8.32 c 0,330.96 -45.89,369.95 -453.38,369.95 h -33.41 c -406.04,0 -451.99,-38.99 -451.99,-369.95 v -8.32 c 0,-329.592 45.95,-368.549 451.99,-368.549 z m -36.16,-107.09 c -496.5,0 -578.55,70.93 -578.55,470.049 v 19.53 c 0,399.09 82.05,470.02 578.55,470.02 h 40.27 c 495.16,0 577.22,-70.93 577.22,-470.02 v -19.53 c 0,-399.119 -82.06,-470.049 -577.22,-470.049 h -40.27"
         style="fill:#211c1d;fill-opacity:1;fill-rule:nonzero;stroke:none"
         id="path24" />
      <path
         d="m 5702.95,1427.07 c -9.65,9.69 -18.05,13.91 -24.96,13.91 -8.41,0 -15.38,-5.61 -15.38,-18.12 V 667.781 c 0,-32.09 -20.86,-52.91 -55.58,-52.91 h -15.33 c -34.72,0 -55.54,20.82 -55.54,52.91 v 813.549 c 0,47.25 26.4,79.2 90.32,79.2 h 68.14 c 39.02,0 61.24,-8.3 89.04,-37.54 l 738.46,-774.56 c 9.67,-9.789 18.08,-13.91 24.98,-13.91 8.44,0 15.38,5.511 15.38,18.019 v 755.221 c 0,31.91 20.82,52.77 55.59,52.77 h 15.3 c 34.74,0 55.6,-20.86 55.6,-52.77 V 694.172 c 0,-47.293 -26.41,-79.301 -90.4,-79.301 h -68.14 c -38.88,0 -61.2,8.367 -88.96,37.598 l -738.52,774.601"
         style="fill:#211c1d;fill-opacity:1;fill-rule:nonzero;stroke:none"
         id="path26" />
      <path
         d="M 27.0078,350.602 H 68.0703 L 276.277,51.1094 h 0.946 V 350.602 h 31.91 V 8.57031 H 268.066 L 59.8594,308.07 H 58.8672 V 8.57031 H 27.0078 V 350.602"
         style="fill:#588fd0;fill-opacity:1;fill-rule:nonzero;stroke:none"
         id="path28" />
      <path
         d="m 789.645,28.8711 c 89.355,0 144.91,65.7109 144.91,150.7189 0,85.012 -55.555,150.711 -144.91,150.711 -89.352,0 -144.911,-65.699 -144.911,-150.711 0,-85.008 55.559,-150.7189 144.911,-150.7189 z m 0,330.4099 c 104.363,0 176.816,-75.332 176.816,-179.691 0,-104.3712 -72.453,-179.699375 -176.816,-179.699375 -104.364,0 -176.817,75.328175 -176.817,179.699375 0,104.359 72.453,179.691 176.817,179.691"
         style="fill:#588fd0;fill-opacity:1;fill-rule:nonzero;stroke:none"
         id="path30" />
      <path
         d="m 1302.07,199.879 h 67.64 c 67.12,0 80.14,37.203 80.14,60.851 0,23.692 -13.02,60.891 -80.14,60.891 h -67.64 z m -31.91,150.723 h 89.87 c 27.05,0 121.73,0 121.73,-89.872 0,-65.191 -49.75,-83.082 -87.46,-87.89 L 1493.85,8.57031 h -36.26 l -96.1,162.32769 h -59.42 V 8.57031 h -31.91 V 350.602"
         style="fill:#588fd0;fill-opacity:1;fill-rule:nonzero;stroke:none"
         id="path32" />
      <path
         d="m 1867.54,321.621 h -116.91 v 28.981 h 265.69 V 321.621 H 1899.4 V 8.57031 h -31.86 V 321.621"
         style="fill:#588fd0;fill-opacity:1;fill-rule:nonzero;stroke:none"
         id="path34" />
      <path
         d="M 2301.14,350.602 H 2333 V 199.879 h 191.31 v 150.723 h 31.86 V 8.57031 h -31.86 V 170.898 H 2333 V 8.57031 h -31.86 V 350.602"
         style="fill:#588fd0;fill-opacity:1;fill-rule:nonzero;stroke:none"
         id="path36" />
      <path
         d="m 3359.58,315.82 -79.72,-187.449 h 157.02 z m -14.96,34.782 h 32.86 L 3521.37,8.57031 h -35.69 L 3448.49,99.3906 H 3267.31 L 3228.65,8.57031 h -33.33 l 149.3,342.03169"
         style="fill:#588fd0;fill-opacity:1;fill-rule:nonzero;stroke:none"
         id="path38" />
      <path
         d="m 3799.48,350.602 h 47.77 L 3971.96,63.6602 4096.57,350.602 h 45.41 V 8.57031 h -31.91 V 310.012 h -0.94 L 3978.66,8.57031 h -13.97 L 3832.33,310.012 h -0.94 V 8.57031 h -31.91 V 350.602"
         style="fill:#588fd0;fill-opacity:1;fill-rule:nonzero;stroke:none"
         id="path40" />
      <path
         d="m 4464.56,350.602 h 209.19 V 321.621 H 4496.46 V 199.879 h 166.15 V 170.898 H 4496.46 V 37.5508 h 185.03 V 8.57031 H 4464.56 V 350.602"
         style="fill:#588fd0;fill-opacity:1;fill-rule:nonzero;stroke:none"
         id="path42" />
      <path
         d="m 5015.02,199.879 h 67.69 c 67.12,0 80.15,37.203 80.15,60.851 0,23.692 -13.03,60.891 -80.15,60.891 h -67.69 z m -31.81,150.723 h 89.77 c 27.09,0 121.78,0 121.78,-89.872 0,-65.191 -49.75,-83.082 -87.41,-87.89 L 5206.85,8.57031 H 5170.6 L 5074.5,170.898 h -59.48 V 8.57031 h -31.81 V 350.602"
         style="fill:#588fd0;fill-opacity:1;fill-rule:nonzero;stroke:none"
         id="path44" />
      <path
         d="m 5501.86,350.602 h 31.81 V 8.57031 h -31.81 V 350.602"
         style="fill:#588fd0;fill-opacity:1;fill-rule:nonzero;stroke:none"
         id="path46" />
      <path
         d="m 6141.06,62.1914 c -32.29,-44.4609 -76.75,-62.300775 -126.97,-62.300775 -104.41,0 -176.82,75.328175 -176.82,179.699375 0,104.359 72.41,179.691 176.82,179.691 46.35,0 87.89,-15.441 117.82,-53.621 l -26.06,-21.711 c -21.24,31.871 -57.5,46.352 -91.76,46.352 -89.4,0 -145,-65.699 -145,-150.711 0,-85.008 55.6,-150.7189 145,-150.7189 34.26,0 76.75,16.4297 100.91,53.1484 l 26.06,-19.8281"
         style="fill:#588fd0;fill-opacity:1;fill-rule:nonzero;stroke:none"
         id="path48" />
      <path
         d="m 6551.53,315.82 -79.68,-187.449 h 156.99 z m -14.91,34.782 h 32.85 L 6713.33,8.57031 h -35.68 l -37.2,90.82029 h -181.16 l -38.7,-90.82029 h -33.32 L 6536.62,350.602"
         style="fill:#588fd0;fill-opacity:1;fill-rule:nonzero;stroke:none"
         id="path50" />
    </g>
  </g>
</svg>
